<?xml version="1.0"?>
<svg xmlns="http://www.w3.org/2000/svg" xmlns:xlink="http://www.w3.org/1999/xlink" version="1.1" id="Capa_1" x="0px" y="0px" viewBox="0 0 44 44" style="enable-background:new 0 0 44 44;" xml:space="preserve" width="512px" height="512px" class=""><g><g>
	<circle cx="14" cy="14.5" r="3.5" data-original="#000000" class="active-path" data-old_color="#000000" fill="#959798"/>
	<circle cx="30" cy="14.5" r="3.5" data-original="#000000" class="active-path" data-old_color="#000000" fill="#959798"/>
	<path d="M22,0C9.869,0,0,9.869,0,22s9.869,22,22,22s22-9.869,22-22S34.131,0,22,0z M22,42C10.972,42,2,33.028,2,22S10.972,2,22,2   s20,8.972,20,20S33.028,42,22,42z" data-original="#000000" class="active-path" data-old_color="#000000" fill="#959798"/>
	<path d="M21.293,30.293c-1.578,1.579-3.406,1.723-4.667,1.56c-1.742-0.221-3.489-1.13-4.919-2.56c-0.391-0.391-1.023-0.391-1.414,0   s-0.391,1.023,0,1.414c2.104,2.104,4.668,3.181,7.089,3.181c1.979,0,3.862-0.718,5.325-2.181c2.721-2.721,7.865-2.721,10.586,0   c0.391,0.391,1.023,0.391,1.414,0s0.391-1.023,0-1.414C31.197,26.782,24.803,26.782,21.293,30.293z" data-original="#000000" class="active-path" data-old_color="#000000" fill="#959798"/>
</g></g> </svg>
